<svg width="699" height="699" viewBox="75 75 550 550" fill="none" xmlns="http://www.w3.org/2000/svg">
<circle cx="349.041" cy="349.041" r="250" transform="rotate(-180 349.041 349.041)" fill="#FFE47A" fill-opacity="0.3"/>
<path d="M146.946 496.147C119.846 458.846 103.589 414.779 99.9713 368.815C96.3539 322.852 105.517 276.783 126.449 235.703C147.38 194.622 179.264 160.13 218.576 136.04C257.887 111.95 303.095 99.2004 349.201 99.2004C395.306 99.2004 440.514 111.95 479.825 136.04C519.137 160.13 551.021 194.622 571.952 235.703C592.884 276.783 602.047 322.852 598.43 368.815C594.813 414.779 578.555 458.846 551.455 496.147L349.201 349.2L146.946 496.147Z" fill="#FFE47A" fill-opacity="0.4"/>
<path d="M111.414 426.432C99.2225 388.91 96.0843 349.036 102.256 310.069C108.428 271.102 123.734 234.149 146.924 202.231C170.114 170.313 200.528 144.337 235.681 126.426C270.833 108.515 309.726 99.1776 349.178 99.1776C388.631 99.1776 427.523 108.515 462.676 126.426C497.828 144.337 528.243 170.314 551.432 202.231C574.622 234.149 589.929 271.102 596.1 310.069C602.272 349.036 599.134 388.91 586.942 426.432L349.178 349.178L111.414 426.432Z" fill="#FFE47A" fill-opacity="0.4"/>
<path d="M99.0469 349.047C99.0469 316.216 105.513 283.707 118.077 253.376C130.641 223.045 149.056 195.485 172.27 172.27C195.485 149.056 223.045 130.641 253.376 118.077C283.707 105.513 316.216 99.0469 349.047 99.0469C381.877 99.0469 414.386 105.513 444.718 118.077C475.049 130.641 502.609 149.056 525.824 172.27C549.038 195.485 567.453 223.045 580.017 253.376C592.58 283.707 599.047 316.216 599.047 349.047L349.047 349.047L99.0469 349.047Z" fill="#FFE16A" fill-opacity="0.65"/>
<path d="M116.22 256.911C134.629 210.3 166.621 170.297 208.045 142.093C249.47 113.889 298.415 98.7857 348.529 98.7428C398.644 98.6999 447.614 113.719 489.087 141.852C530.56 169.985 562.62 209.933 581.108 256.513L348.743 348.743L116.22 256.911Z" fill="#FFDF62"/>
</svg>
